<?xml version="1.0" standalone="no"?>
<!DOCTYPE svg PUBLIC "-//W3C//DTD SVG 20010904//EN"
 "http://www.w3.org/TR/2001/REC-SVG-20010904/DTD/svg10.dtd">
<svg version="1.0" xmlns="http://www.w3.org/2000/svg"
 width="1280.000000pt" height="640.000000pt" viewBox="0 0 1280.000000 640.000000"
 preserveAspectRatio="xMidYMid meet">
<metadata>
Created by potrace 1.15, written by Peter Selinger 2001-2017
</metadata>
<g transform="translate(0.000000,640.000000) scale(0.100000,-0.100000)"
fill="#000000" stroke="none">
<path d="M6238 5058 c-61 -51 -247 -218 -537 -483 -247 -225 -330 -285 -399
-285 -49 0 -60 -9 -109 -84 -50 -77 -158 -191 -213 -225 -59 -36 -55 -23 7 22
103 77 215 222 200 261 -6 15 -19 16 -114 11 -112 -6 -567 -31 -733 -40 -52
-3 -237 -14 -410 -25 -333 -21 -704 -44 -985 -60 -163 -9 -557 -28 -1035 -50
-259 -12 -426 -27 -452 -41 -10 -5 -18 -16 -18 -24 0 -18 -10 -20 -164 -45
-183 -29 -302 -56 -414 -94 -87 -30 -112 -34 -250 -40 -169 -7 -245 -23 -292
-63 -45 -37 -59 -72 -75 -184 -12 -91 -17 -105 -53 -153 -106 -140 -178 -366
-189 -591 -4 -95 -1 -123 20 -206 14 -52 39 -130 57 -172 27 -64 43 -87 98
-138 88 -80 199 -148 279 -170 36 -10 71 -26 79 -36 7 -10 25 -52 40 -93 54
-152 120 -261 229 -378 250 -268 619 -411 964 -373 170 18 407 109 558 213
104 71 255 223 326 329 l59 86 1161 7 c639 4 1569 11 2067 16 498 5 1145 10
1438 10 l533 0 17 31 c35 64 41 67 35 22 -5 -42 -5 -42 32 -49 52 -9 212 1
229 15 8 7 17 22 19 34 3 21 4 21 14 -4 13 -31 31 -39 81 -39 49 0 52 -3 110
-90 89 -131 197 -245 306 -319 126 -87 330 -169 478 -192 91 -14 315 -6 416
16 91 19 233 77 349 141 143 80 345 296 412 442 l24 52 112 0 c62 0 147 5 191
10 43 6 237 21 429 35 333 24 673 59 870 90 50 8 115 17 145 21 30 3 87 17
125 30 39 13 101 28 139 33 78 11 108 32 137 97 27 60 46 72 124 80 45 4 74
12 83 22 16 21 16 108 0 119 -7 4 -47 10 -88 13 l-75 5 -7 125 c-12 217 -37
300 -107 347 -38 26 -108 31 -176 12 -53 -15 -120 -85 -136 -141 -23 -89 -21
-89 -76 -7 -49 72 -65 89 -164 169 -77 63 -94 79 -83 80 7 0 35 -21 63 -46 32
-28 51 -40 51 -31 0 43 -181 216 -360 344 -91 65 -473 259 -651 330 -247 98
-589 191 -1009 272 -432 84 -751 124 -1242 156 -131 9 -262 22 -293 30 -85 23
-151 19 -215 -11 -45 -21 -83 -28 -205 -39 -168 -15 -261 -40 -324 -85 -23
-17 -79 -70 -124 -117 -45 -48 -101 -106 -123 -130 -29 -30 -49 -43 -69 -43
-80 0 -419 86 -497 126 -24 12 -28 21 -28 55 0 43 -32 147 -57 185 -8 13 -33
29 -57 36 -22 6 -46 15 -52 20 -6 4 -21 45 -34 91 -71 261 -116 369 -157 375
-55 8 -65 -73 -37 -318 9 -77 14 -146 11 -154 -3 -7 -35 -21 -71 -31 -63 -17
-66 -17 -93 0 -36 24 -223 205 -223 217 0 5 46 58 103 119 286 307 327 354
327 375 0 32 -62 147 -85 159 -11 5 -32 22 -47 38 -40 40 -68 35 -140 -25z
m158 -39 c59 -56 65 -78 38 -131 -9 -17 -101 -119 -206 -227 -226 -233 -293
-298 -331 -318 -30 -15 -374 -49 -386 -38 -8 9 114 126 454 435 259 236 365
330 373 330 2 0 28 -23 58 -51z m-76 -319 c0 -5 -5 -10 -11 -10 -5 0 -7 5 -4
10 3 6 8 10 11 10 2 0 4 -4 4 -10z m-128 -137 c-67 -75 -204 -209 -157 -153
36 42 208 220 213 220 2 0 -23 -30 -56 -67z m362 -229 c18 -71 21 -134 6 -134
-17 0 -28 41 -35 131 -8 98 4 99 29 3z m-354 -160 c0 -11 -8 -28 -18 -38 -18
-15 -22 -12 -91 66 -95 108 -97 112 -69 140 l22 22 78 -85 c45 -49 78 -93 78
-105z m-230 160 c0 -3 -49 -56 -109 -119 -60 -62 -134 -145 -165 -183 -31 -39
-64 -73 -72 -76 -25 -9 -122 -7 -128 3 -11 17 6 41 28 41 41 0 174 98 350 259
90 81 96 86 96 75z m2420 -152 c44 -36 44 -186 -1 -275 -35 -69 -173 -199
-254 -240 -39 -19 -82 -37 -95 -38 -21 -4 -25 1 -31 33 -7 43 -5 45 82 101
115 75 209 204 209 285 0 22 -7 56 -15 75 -20 47 -20 46 18 62 43 19 61 18 87
-3z m-1993 -132 c154 -103 350 -202 503 -255 139 -48 344 -101 450 -116 101
-15 366 -18 501 -5 l96 8 7 -32 c8 -44 -5 -56 -72 -71 -87 -20 -434 -16 -551
5 -404 73 -777 230 -1039 438 -59 47 -82 84 -67 107 13 22 42 9 172 -79z
m1814 59 c20 -5 43 -16 50 -25 11 -14 10 -18 -6 -30 -22 -16 -185 -20 -185 -5
0 5 -16 26 -35 47 l-35 37 88 -7 c48 -4 103 -11 123 -17z m-237 -13 c49 -20
64 -63 41 -121 -20 -55 -105 -188 -148 -232 -30 -32 -67 -44 -67 -23 0 6 29
45 65 86 85 97 107 132 95 155 -35 65 -263 43 -366 -36 -20 -15 -37 -25 -40
-22 -6 6 112 116 164 151 74 51 189 70 256 42z m-1866 -58 c-67 -66 -122 -157
-159 -265 -34 -100 -30 -108 63 -118 29 -4 132 -17 228 -31 96 -13 292 -37
434 -54 143 -17 266 -35 275 -40 9 -5 13 -10 9 -10 -11 0 -413 46 -653 75
-115 14 -253 30 -306 36 l-97 12 -53 -29 c-71 -38 -189 -151 -222 -212 -31
-58 -54 -159 -63 -280 -11 -136 -25 -144 -19 -10 10 214 46 302 177 429 48 48
88 90 88 93 0 14 -55 25 -196 40 -177 19 -227 26 -221 33 3 2 111 -6 241 -18
175 -16 239 -19 249 -11 7 6 31 55 52 108 43 109 115 224 175 278 67 61 66 40
-2 -26z m-518 44 c0 -11 -41 -34 -48 -27 -4 4 2 13 12 21 22 15 36 18 36 6z
m-3310 -42 c204 -13 468 -36 620 -55 228 -29 835 -75 1230 -94 l165 -8 -124
-2 c-74 0 -121 -5 -115 -10 5 -5 122 -21 259 -36 393 -42 650 -74 676 -84 35
-14 25 -13 -211 14 -118 14 -363 41 -545 60 -181 20 -514 56 -740 80 -824 88
-1132 116 -1463 129 l-327 13 205 2 c113 0 279 -4 370 -9z m5939 -36 c20 -4
31 -12 31 -24 0 -14 -13 -18 -75 -23 -53 -4 -86 -12 -112 -28 -38 -24 -38 -18
4 38 22 30 33 34 104 41 9 1 31 -1 48 -4z m-3334 -64 c-3 -5 -13 -10 -21 -10
-8 0 -12 5 -9 10 3 6 13 10 21 10 8 0 12 -4 9 -10z m2993 -52 c2 -11 -28 -49
-81 -103 l-84 -85 -116 0 c-65 0 -117 4 -117 9 0 10 90 95 141 134 53 40 135
66 199 64 43 -2 56 -6 58 -19z m-3521 6 c-3 -3 -12 -4 -19 -1 -8 3 -5 6 6 6
11 1 17 -2 13 -5z m86 -1 c-7 -2 -21 -2 -30 0 -10 3 -4 5 12 5 17 0 24 -2 18
-5z m135 0 c-10 -2 -26 -2 -35 0 -10 3 -2 5 17 5 19 0 27 -2 18 -5z m5024 -3
c70 -5 171 -16 225 -25 54 -8 199 -29 323 -46 276 -38 387 -60 650 -133 280
-77 544 -183 625 -251 42 -35 27 -31 -73 19 -136 68 -405 172 -544 210 -219
60 -460 104 -850 156 -278 37 -427 52 -565 57 -104 3 -178 10 -168 14 28 11
226 10 377 -1z m-2627 -51 c105 -33 280 -79 304 -79 32 0 91 -21 86 -31 -4 -5
-20 -9 -37 -9 -27 0 -261 55 -348 81 -59 19 -150 61 -150 71 0 11 32 4 145
-33z m1921 -15 c-93 -24 -210 -61 -260 -80 -100 -39 -262 -122 -310 -159 -37
-27 -216 -117 -268 -134 -55 -18 -62 -32 -35 -72 42 -62 39 -65 -10 -11 l-48
52 -110 1 c-60 0 -139 4 -175 8 -36 4 -193 22 -350 41 -281 32 -373 48 -280
49 25 0 74 -4 110 -9 172 -24 615 -70 682 -70 44 0 81 5 90 13 9 6 23 38 32
70 8 33 17 62 20 65 13 12 15 -6 6 -39 -6 -18 -10 -46 -10 -61 0 -23 4 -28 25
-28 39 0 132 41 277 123 294 165 431 224 613 262 181 39 182 27 1 -21z m-8522
-105 c-19 -84 -33 -118 -34 -80 0 23 27 139 37 154 13 21 12 -6 -3 -74z m7586
73 c0 -5 -7 -17 -15 -28 -14 -18 -14 -17 -4 9 12 27 19 34 19 19z m-2780 -62
c10 -6 -3 -7 -40 -3 -30 3 -57 7 -59 9 -10 9 85 3 99 -6z m117 -16 c-3 -3 -12
-4 -19 -1 -8 3 -5 6 6 6 11 1 17 -2 13 -5z m3693 -208 c0 -2 -35 -23 -77 -46
-90 -48 -176 -108 -267 -186 -71 -60 -96 -71 -50 -23 83 89 394 290 394 255z
m-7025 -69 c204 -57 360 -143 497 -275 273 -263 379 -619 293 -989 -42 -182
-127 -328 -283 -486 -168 -172 -349 -269 -597 -323 -206 -44 -517 -7 -700 84
-302 150 -502 389 -587 700 -17 63 -21 106 -21 237 0 143 3 171 27 260 111
412 472 737 896 805 41 6 82 13 90 15 8 2 78 2 155 0 110 -3 159 -9 230 -28z
m9624 -93 c78 -42 194 -124 188 -131 -3 -2 -29 11 -59 30 -29 19 -88 55 -130
81 -43 26 -78 49 -78 52 0 9 16 3 79 -32z m-3499 -218 c-7 -7 -10 1 -9 25 0
32 1 33 10 10 6 -16 6 -28 -1 -35z m438 32 c-84 -128 -115 -180 -158 -269 -56
-114 -67 -132 -46 -73 30 85 119 246 183 332 27 36 43 44 21 10z m3322 12 c0
-5 -2 -10 -4 -10 -3 0 -8 5 -11 10 -3 6 -1 10 4 10 6 0 11 -4 11 -10z m557
-167 c4 -21 8 -164 8 -318 0 -267 -1 -282 -21 -320 -12 -22 -31 -49 -43 -59
l-21 -19 0 39 c0 57 -16 154 -47 278 l-26 110 31 26 c40 33 40 44 2 87 -31 35
-32 43 -8 120 11 37 70 93 98 93 14 0 21 -10 27 -37z m-4320 -5 c-3 -7 -5 -2
-5 12 0 14 2 19 5 13 2 -7 2 -19 0 -25z m-7 -83 c0 -14 -4 -25 -10 -25 -5 0
-10 11 -10 25 0 14 5 25 10 25 6 0 10 -11 10 -25z m-19 -152 c-9 -15 -10 -13
-11 13 0 17 3 34 8 38 11 12 14 -32 3 -51z m-2501 -50 c0 -32 -5 -28 -14 10
-4 19 -3 26 4 22 5 -3 10 -18 10 -32z m2729 -47 c-9 -8 -10 -7 -5 7 3 10 7 26
7 35 1 9 4 6 6 -7 3 -13 -1 -28 -8 -35z m-242 -18 c-3 -7 -5 -2 -5 12 0 14 2
19 5 13 2 -7 2 -19 0 -25z m-2470 -300 c-3 -8 -6 -5 -6 6 -1 11 2 17 5 13 3
-3 4 -12 1 -19z m6333 -88 c0 -14 -14 -12 -28 2 -19 19 -14 30 8 18 11 -6 20
-15 20 -20z m-6255 -250 c3 -5 1 -10 -4 -10 -6 0 -11 5 -11 10 0 6 2 10 4 10
3 0 8 -4 11 -10z m4706 -37 c-93 -180 -280 -362 -477 -463 -143 -73 -217 -91
-404 -97 -264 -9 -372 13 -580 117 -119 60 -199 119 -289 216 -76 81 -154 191
-148 208 7 21 34 17 66 -9 17 -15 31 -33 31 -41 0 -23 189 -212 261 -259 81
-54 228 -125 321 -155 62 -20 84 -21 270 -18 192 3 207 5 283 31 230 81 409
211 530 383 71 101 94 124 127 124 l28 0 -19 -37z m-111 13 c0 -28 -83 -137
-159 -208 -209 -197 -409 -282 -666 -281 -316 0 -596 134 -798 381 -32 38 -57
72 -57 76 0 9 316 7 387 -3 43 -7 81 -21 120 -45 114 -70 255 -99 408 -85 102
10 190 41 277 98 96 62 96 62 223 71 195 13 265 12 265 -4z m-610 -35 c0 -4
-26 -17 -57 -27 -45 -15 -87 -19 -188 -19 -118 1 -199 14 -182 31 5 5 109 11
390 22 20 1 37 -2 37 -7z"/>
<path d="M1547 3390 c-237 -38 -443 -139 -610 -299 -204 -197 -300 -420 -300
-696 1 -108 5 -147 27 -230 113 -432 526 -755 965 -755 248 0 443 61 649 203
97 66 236 215 296 315 56 94 110 244 127 352 15 100 6 274 -21 375 -113 422
-505 726 -955 740 -66 2 -146 0 -178 -5z m308 -31 c332 -49 627 -278 755 -586
101 -241 91 -534 -26 -766 -51 -103 -97 -167 -172 -244 -147 -151 -326 -253
-522 -298 -156 -36 -434 -17 -610 41 -250 83 -478 324 -582 614 -21 60 -23 80
-23 280 l0 215 33 81 c32 79 106 212 151 270 50 65 180 188 243 230 180 120
423 190 618 177 36 -2 97 -9 135 -14z"/>
<path d="M1535 3026 c-246 -56 -458 -257 -511 -482 -22 -95 -15 -257 14 -338
55 -151 181 -294 319 -363 213 -107 472 -96 668 28 149 94 269 269 295 429 16
95 7 230 -20 311 -60 176 -236 344 -427 405 -67 22 -262 27 -338 10z m289 -72
c250 -64 415 -258 433 -509 14 -199 -90 -393 -274 -512 -99 -64 -156 -78 -318
-78 -168 0 -223 15 -332 88 -122 81 -196 187 -233 333 -24 92 -25 157 -5 243
49 207 229 386 437 437 75 18 218 17 292 -2z"/>
<path d="M1575 2941 c-116 -19 -264 -104 -344 -198 -55 -65 -99 -158 -118
-251 -13 -64 -14 -91 -5 -161 23 -172 108 -295 272 -391 108 -64 150 -73 310
-68 l140 4 96 48 c152 76 243 182 290 341 24 82 24 231 0 305 -50 153 -172
276 -343 348 -58 25 -213 37 -298 23z m237 -30 c106 -27 172 -63 246 -135 72
-68 103 -116 132 -201 43 -124 33 -265 -26 -392 -40 -86 -158 -199 -256 -248
-70 -34 -87 -38 -190 -45 -137 -9 -179 -3 -283 40 -133 55 -247 184 -291 329
-22 70 -19 213 5 292 84 270 382 432 663 360z"/>
<path d="M1575 2855 c-80 -18 -140 -44 -198 -89 -91 -70 -138 -133 -168 -226
-77 -242 67 -504 315 -575 45 -13 86 -16 172 -13 102 4 118 7 179 37 96 47
200 148 239 231 28 61 30 73 30 185 1 115 0 123 -32 189 -60 127 -200 236
-340 265 -67 14 -121 13 -197 -4z m301 -67 c81 -42 159 -120 196 -196 32 -64
33 -72 33 -182 0 -106 -3 -119 -29 -175 -37 -76 -133 -173 -206 -208 -160 -77
-378 -47 -511 71 -124 111 -165 337 -87 484 41 77 87 129 149 169 92 59 138
70 279 66 113 -2 130 -5 176 -29z"/>
<path d="M1565 2660 c-68 -27 -115 -68 -150 -131 -25 -45 -30 -65 -30 -124 0
-59 5 -79 30 -124 51 -93 154 -151 267 -151 88 0 206 78 247 164 31 63 29 171
-3 235 -26 51 -75 100 -129 128 -50 26 -171 28 -232 3z m162 -105 c28 -8 56
-21 62 -29 9 -11 -3 -14 -67 -19 -42 -3 -91 -9 -109 -13 -29 -6 -33 -3 -39 20
-11 44 0 56 54 56 27 0 71 -7 99 -15z"/>
</g>
</svg>
