<?xml version="1.0" encoding="UTF-8"?>
<!DOCTYPE svg PUBLIC "-//W3C//DTD SVG 1.1//EN" "http://www.w3.org/Graphics/SVG/1.1/DTD/svg11.dtd">
<!-- Creator: CorelDRAW -->
<svg xmlns="http://www.w3.org/2000/svg" xml:space="preserve" width="2.66666in" height="2.66666in" version="1.1" style="shape-rendering:geometricPrecision; text-rendering:geometricPrecision; image-rendering:optimizeQuality; fill-rule:evenodd; clip-rule:evenodd"
viewBox="0 0 2666.66 2666.66"
 xmlns:xlink="http://www.w3.org/1999/xlink"
 xmlns:xodm="http://www.corel.com/coreldraw/odm/2003">
 <defs>
  <style type="text/css">
   <![CDATA[
    .fil1 {fill:#293253}
    .fil0 {fill:#6CD47F}
    .fil2 {fill:#FED762}
   ]]>
  </style>
 </defs>
 <g id="Layer_x0020_1">
  <metadata id="CorelCorpID_0Corel-Layer"/>
  <circle class="fil0" cx="1333.33" cy="1333.33" r="1333.33"/>
  <path class="fil1" d="M2166.65 1771.52l-212.17 0c-26.33,0 -26.32,-40 0,-40l192.17 0 0 -167.67c-22.53,-5.48 -181.25,-42.01 -188.75,-47.41l-280.29 -201.67 -380.24 0.01c-88.29,0 -247.72,66.12 -277.46,147.59 -2.87,7.87 -10.39,13.14 -18.79,13.14l-215.76 0c-137.39,0 -254.38,115.3 -264.62,256.01l165.88 0c26.32,0 26.32,40 0,40l-186.61 0c-11.04,0 -20,-8.97 -20,-20 0,-171.3 139.83,-316.02 305.34,-316.02l202.63 0c46.58,-94 212.54,-160.72 309.38,-160.72l386.69 0c4.19,0 8.28,1.32 11.68,3.76l282.36 203.13 193.27 47c8.97,2.18 15.29,10.21 15.29,19.43l0 203.41c-0.01,11.02 -8.97,19.99 -20.01,19.99zm-497.76 0l-696.68 0c-26.33,0 -26.33,-40 0,-40l696.68 0c26.32,0 26.32,40 0,40z"/>
  <path class="fil1" d="M829.42 1914.3c-89.76,0 -162.79,-73.03 -162.79,-162.79 0,-89.76 73.03,-162.8 162.79,-162.8 89.76,0 162.79,73.04 162.79,162.8 0,89.76 -73.03,162.79 -162.79,162.79zm0 -285.56c-67.7,0 -122.79,55.08 -122.79,122.79 0,67.71 55.08,122.78 122.79,122.78 67.71,0 122.79,-55.07 122.79,-122.78 0,-67.7 -55.09,-122.79 -122.79,-122.79z"/>
  <path class="fil1" d="M1811.68 1914.3c-89.76,0 -162.8,-73.03 -162.8,-162.79 0,-89.76 73.04,-162.8 162.8,-162.8 89.76,0 162.8,73.04 162.8,162.8 0,89.76 -73.04,162.79 -162.8,162.79zm0 -285.56c-67.71,0 -122.79,55.08 -122.79,122.79 0,67.71 55.08,122.78 122.79,122.78 67.71,0 122.79,-55.07 122.79,-122.78 0,-67.7 -55.08,-122.79 -122.79,-122.79z"/>
  <path class="fil1" d="M829.42 1838.51c-114.49,0 -114.48,-174 0,-174 114.48,0 114.49,174 0,174zm0 -133.97c-61.85,0 -61.83,93.97 0,93.97 61.84,0 61.85,-93.97 0,-93.97z"/>
  <path class="fil1" d="M1858.62 1552.61l-387.52 0c-11.04,0 -20,-8.97 -20,-20l0 -146.48c0,-11.04 8.97,-20 20,-20l196.56 0c4.41,0 8.68,1.44 12.17,4.14l190.96 146.48c15.1,11.59 6.85,35.86 -12.17,35.86zm-367.52 -40.01l308.59 0 -138.8 -106.47 -169.79 0 0 106.47z"/>
  <path class="fil1" d="M1471.1 1552.61l-393.7 0c-11.04,0 -20,-8.97 -20,-20 0,-96.57 129.69,-166.48 217.12,-166.48l196.58 0c11.04,0 20,8.97 20,20l0 146.48c0,11.04 -8.96,20 -20,20zm-370.51 -40.01l350.49 0 0 -106.47 -176.56 0c-67.76,0 -156.14,50.11 -173.93,106.47z"/>
  <path class="fil1" d="M1540.98 1662.05l-412.35 0c-26.33,0 -26.33,-40 0,-40l412.35 0c26.32,0 26.32,40 0,40z"/>
  <path class="fil1" d="M1811.68 1838.51c-114.5,0 -114.5,-174 0,-174 114.48,0 114.48,174 0,174zm0 -133.97c-61.84,0 -61.84,93.97 0,93.97 61.81,0 61.82,-93.97 0,-93.97z"/>
  <path class="fil1" d="M1794.55 1165.7c-81.12,0 -155.09,-48.25 -188.32,-121.42l-545.83 0c-72.83,160.47 -302.29,161.69 -376.13,1.05 -6.05,-13.17 3.67,-28.36 18.17,-28.36l166.43 0 19.28 -57.93 -19.28 -57.93 -166.43 0c-61.83,0 32.27,-148.73 169.66,-148.73 81.12,0 155.09,48.25 188.3,121.43l545.84 -0.01c72.85,-160.47 302.3,-161.71 376.15,-1.06 6.06,13.18 -3.69,28.36 -18.18,28.36l-166.43 0 -19.28 57.93 19.28 57.93 166.43 0c61.86,0 -32.26,148.73 -169.65,148.73zm-747.52 -161.41l572.59 0c8.36,0 15.82,5.2 18.75,13.01 46.23,123.67 212.6,147.33 291.05,39.68l-146.06 0c-8.61,0 -16.26,-5.51 -18.97,-13.68 -34.76,-104.64 -34.76,-63.85 0,-168.48 2.71,-8.17 10.36,-13.68 18.97,-13.68l146.06 0c-78.43,-107.67 -244.82,-84.02 -291.05,39.68 -2.93,7.82 -10.39,13.02 -18.75,13.02l-572.58 0c-8.35,0 -15.82,-5.2 -18.73,-13.01 -46.04,-123.46 -212.51,-147.52 -291.07,-39.68l146.06 -0c8.61,0 16.25,5.51 18.97,13.68 34.73,104.34 34.76,64.13 0,168.48 -2.72,8.17 -10.36,13.68 -18.97,13.68l-146.06 0c78.61,107.83 245.03,83.74 291.05,-39.68 2.92,-7.83 10.39,-13.01 18.74,-13.01z"/>
  <path class="fil2" d="M1047.03 1004.29l572.59 0c8.36,0 15.82,5.2 18.75,13.01 46.23,123.67 212.6,147.33 291.05,39.68l-146.06 0c-8.61,0 -16.26,-5.51 -18.97,-13.68 -34.76,-104.64 -34.76,-63.85 0,-168.48 2.71,-8.17 10.36,-13.68 18.97,-13.68l146.06 0c-78.43,-107.67 -244.82,-84.02 -291.05,39.68 -2.93,7.82 -10.39,13.02 -18.75,13.02l-572.58 0c-8.35,0 -15.82,-5.2 -18.73,-13.01 -46.04,-123.46 -212.51,-147.52 -291.07,-39.68l146.06 -0c8.61,0 16.25,5.51 18.97,13.68 34.73,104.34 34.76,64.13 0,168.48 -2.72,8.17 -10.36,13.68 -18.97,13.68l-146.06 0c78.61,107.83 245.03,83.74 291.05,-39.68 2.92,-7.83 10.39,-13.01 18.74,-13.01z"/>
  <path class="fil2" d="M1297.37 1314.78c-88.29,0 -247.72,66.12 -277.46,147.59 -2.87,7.87 -10.39,13.14 -18.79,13.14l-215.76 0c-137.39,0 -254.38,115.3 -264.62,256.01l147.12 0c9.88,-80.37 78.57,-142.81 161.57,-142.81 83,0 151.69,62.44 161.57,142.81l659.11 0c9.88,-80.37 78.58,-142.81 161.58,-142.81 83,0 151.7,62.44 161.58,142.81l173.39 0 0 -167.67c-22.53,-5.48 -181.25,-42.01 -188.75,-47.41l-280.29 -201.67 -380.24 0.01zm-239.97 217.83c0,-96.57 129.69,-166.48 217.12,-166.48l393.15 0c4.41,0 8.68,1.44 12.17,4.14l190.96 146.48c15.1,11.59 6.85,35.86 -12.17,35.86l-781.22 0c-11.04,0 -20,-8.97 -20,-20zm71.22 89.45l412.35 0c26.32,0 26.32,40 0,40l-412.35 0c-26.33,0 -26.33,-40 0,-40z"/>
  <path class="fil2" d="M1274.52 1406.13c-67.76,0 -156.14,50.11 -173.93,106.47l350.49 0 0 -106.47 -176.56 0z"/>
  <polygon class="fil2" points="1491.1,1406.13 1491.1,1512.59 1799.69,1512.59 1660.89,1406.13 "/>
  <path class="fil2" d="M1811.68 1628.73c-67.71,0 -122.79,55.08 -122.79,122.79 0,67.71 55.08,122.78 122.79,122.78 67.71,0 122.79,-55.07 122.79,-122.78 0,-67.7 -55.08,-122.79 -122.79,-122.79zm0 209.78c-114.5,0 -114.5,-174 0,-174 114.48,0 114.48,174 0,174z"/>
  <path class="fil2" d="M952.21 1751.52c0,-67.7 -55.09,-122.79 -122.79,-122.79 -67.7,0 -122.79,55.08 -122.79,122.79 0,67.71 55.08,122.78 122.79,122.78 67.71,0 122.79,-55.07 122.79,-122.78zm-122.79 -87.02c114.48,0 114.49,174 0,174 -114.49,0 -114.48,-174 0,-174z"/>
  <path class="fil2" d="M829.42 1798.51c61.84,0 61.85,-93.97 0,-93.97 -61.85,0 -61.83,93.97 0,93.97z"/>
  <path class="fil2" d="M1811.68 1704.54c-61.84,0 -61.84,93.97 0,93.97 61.81,0 61.82,-93.97 0,-93.97z"/>
 </g>
</svg>
